<?xml version="1.0" encoding="utf-8"?>
<!-- Generator: Adobe Illustrator 16.0.0, SVG Export Plug-In . SVG Version: 6.00 Build 0)  -->
<!DOCTYPE svg PUBLIC "-//W3C//DTD SVG 1.1//EN" "http://www.w3.org/Graphics/SVG/1.1/DTD/svg11.dtd">
<svg version="1.1" id="Layer_1" xmlns="http://www.w3.org/2000/svg" xmlns:xlink="http://www.w3.org/1999/xlink" x="0px" y="0px"
	 width="761.227px" height="669px" viewBox="0 0 761.227 669" enable-background="new 0 0 761.227 669" xml:space="preserve">
<g>
	<path fill="none" d="M552.895,36H208.306L36,334.5L208.306,633h203.388l94.288-176.584L396.482,258h65.25l74.5,140l69.5-140h63.5
		L475.92,633h77l172.299-298.5L552.907,36H552.895z M334.232,473.832c-23.836,23.336-53.418,35-88.75,35
		c-33.5,0-61.167-9.914-83-29.75c-21.5-19.832-34.918-47.75-40.25-83.75l59-13c2.664,22.668,7.332,38.336,14,47
		c12,16.668,29.5,25,52.5,25c18.164,0,33.25-6.082,45.25-18.25c12-12.164,18-27.582,18-46.25c0-7.5-1.043-14.375-3.125-20.625
		c-2.086-6.25-5.336-12-9.75-17.25c-4.418-5.25-10.125-10.164-17.125-14.75c-7-4.583-15.336-8.958-25-13.125l-37.25-15.5
		c-52.835-22.332-79.25-55-79.25-98c0-29,11.082-53.25,33.25-72.75c22.164-19.664,49.75-29.5,82.75-29.5
		c44.5,0,79.25,21.668,104.25,65l-47.25,28c-8.836-15.332-17.25-25.332-25.25-30c-8.336-5.332-19.086-8-32.25-8
		c-16.168,0-29.586,4.586-40.25,13.75c-10.668,9-16,20.336-16,34c0,18.836,14,34,42,45.5l38.5,15.75
		c31.332,12.668,54.25,28.125,68.75,46.375c14.5,18.25,21.75,40.625,21.75,67.125C369.732,421.332,357.896,450.668,334.232,473.832z
		"/>
	<path fill="#25064C" d="M756.404,316.502l-172.306-298.5C577.668,6.863,565.782,0,552.92,0H208.306
		c-12.863,0-24.748,6.863-31.178,18.002L4.822,316.502c-6.429,11.137-6.429,24.858,0,35.995l172.306,298.5
		c6.43,11.141,18.315,18.003,31.178,18.003H552.92c12.862,0,24.748-6.862,31.179-18.003l172.306-298.5
		C762.833,341.36,762.833,327.64,756.404,316.502z M552.92,633h-77l193.312-375h-63.5l-69.5,140l-74.5-140h-65.25l109.5,198.416
		L411.694,633H208.306L36,334.5L208.306,36h344.588h0.013l172.312,298.5L552.92,633z"/>
	<path fill="#25064C" d="M279.232,272.332l-38.5-15.75c-28-11.5-42-26.664-42-45.5c0-13.664,5.332-25,16-34
		c10.664-9.164,24.082-13.75,40.25-13.75c13.164,0,23.914,2.668,32.25,8c8,4.668,16.414,14.668,25.25,30l47.25-28
		c-25-43.332-59.75-65-104.25-65c-33,0-60.585,9.836-82.75,29.5c-22.168,19.5-33.25,43.75-33.25,72.75c0,43,26.414,75.668,79.25,98
		l37.25,15.5c9.664,4.168,18,8.543,25,13.125c7,4.586,12.707,9.5,17.125,14.75c4.414,5.25,7.664,11,9.75,17.25
		c2.082,6.25,3.125,13.125,3.125,20.625c0,18.668-6,34.086-18,46.25c-12,12.168-27.086,18.25-45.25,18.25c-23,0-40.5-8.332-52.5-25
		c-6.668-8.664-11.336-24.332-14-47l-59,13c5.332,36,18.75,63.918,40.25,83.75c21.832,19.836,49.5,29.75,83,29.75
		c35.332,0,64.914-11.664,88.75-35c23.664-23.164,35.5-52.5,35.5-88c0-26.5-7.25-48.875-21.75-67.125
		C333.482,300.457,310.564,285,279.232,272.332z"/>
</g>
</svg>
