<?xml version="1.0" encoding="utf-8"?>
<!-- Generator: Adobe Illustrator 16.0.0, SVG Export Plug-In . SVG Version: 6.00 Build 0)  -->
<!DOCTYPE svg PUBLIC "-//W3C//DTD SVG 1.1//EN" "http://www.w3.org/Graphics/SVG/1.1/DTD/svg11.dtd">
<svg version="1.1" id="Layer_1" xmlns="http://www.w3.org/2000/svg" xmlns:xlink="http://www.w3.org/1999/xlink" x="0px" y="0px"
	 width="761.227px" height="669px" viewBox="0 0 761.227 669" enable-background="new 0 0 761.227 669" xml:space="preserve">
<g>
	<path fill="#FFFFFF" d="M552.907,36l172.312,298.5L552.92,633H208.306L36,334.5L208.306,36h344.588 M552.92,0H208.306
		c-12.863,0-24.748,6.863-31.178,18.002L4.822,316.502c-6.429,11.137-6.429,24.858,0,35.995l172.306,298.5
		c6.43,11.141,18.315,18.003,31.178,18.003H552.92c12.862,0,24.748-6.862,31.179-18.003l172.306-298.5
		c6.429-11.137,6.429-24.857,0-35.995l-172.306-298.5C577.668,6.863,565.782,0,552.92,0L552.92,0z"/>
</g>
<g>
	<path fill="#FFFFFF" d="M359.732,173.332l-47.25,28c-8.836-15.332-17.25-25.332-25.25-30c-8.336-5.332-19.086-8-32.25-8
		c-16.168,0-29.586,4.586-40.25,13.75c-10.668,9-16,20.336-16,34c0,18.836,14,34,42,45.5l38.5,15.75
		c31.332,12.668,54.25,28.125,68.75,46.375c14.5,18.25,21.75,40.625,21.75,67.125c0,35.5-11.836,64.836-35.5,88
		c-23.836,23.336-53.418,35-88.75,35c-33.5,0-61.167-9.914-83-29.75c-21.5-19.832-34.918-47.75-40.25-83.75l59-13
		c2.664,22.668,7.332,38.336,14,47c12,16.668,29.5,25,52.5,25c18.164,0,33.25-6.082,45.25-18.25c12-12.164,18-27.582,18-46.25
		c0-7.5-1.043-14.375-3.125-20.625c-2.086-6.25-5.336-12-9.75-17.25c-4.418-5.25-10.125-10.164-17.125-14.75
		c-7-4.583-15.336-8.958-25-13.125l-37.25-15.5c-52.835-22.332-79.25-55-79.25-98c0-29,11.082-53.25,33.25-72.75
		c22.164-19.664,49.75-29.5,82.75-29.5C299.982,108.332,334.732,130,359.732,173.332z"/>
	<path fill="#FFFFFF" d="M505.982,456.582l-109.5-198.25h65.25l74.5,140l69.5-140h63.5l-194,376h-64.25L505.982,456.582z"/>
</g>
</svg>
